# xmcd CD database file
#
# Track frame offsets:
#	150
#	5780
#	23922
#	40767
#	66895
#	90247
#	108480
#	130090
#	151275
#	169162
#	191877
#	209842
#	230105
#	248265
#	269877
#	298515
#	320272
#
# Disc length: 4357 seconds
#
# Revision: 4
# Processed by: cddbd v1.5.2PL0 Copyright (c) Steve Scherf et al.
# Submitted via: CDex 1.70beta3
#
DISCID=f5110311
DTITLE=浜田麻里 - INCLINATION Disc One
DYEAR=1994
DGENRE=Rock
TTITLE0=～Love Maker～
TTITLE1=Don't Change Your Mind
TTITLE2=Tokio Makin' Love
TTITLE3=ALL NIGHT PARTY
TTITLE4=RUNAWAY FROM YESTERDAY
TTITLE5=Heart Line
TTITLE6=Misty Lady
TTITLE7=Paradise
TTITLE8=LAST SCENE
TTITLE9=Hard Dancin'
TTITLE10=Another Way
TTITLE11=MEMORY IN VAIN
TTITLE12=Forever
TTITLE13=Blue Revolution
TTITLE14=My Tears
TTITLE15=Heart And Soul
TTITLE16=～Hearty My Song～
EXTD=YEAR: 1994
EXTT0=
EXTT1=
EXTT2=
EXTT3=
EXTT4=
EXTT5=
EXTT6=
EXTT7=
EXTT8=
EXTT9=
EXTT10=
EXTT11=
EXTT12=
EXTT13=
EXTT14=
EXTT15=
EXTT16=
PLAYORDER=
